<?xml version="1.0" encoding="UTF-8" standalone="no"?>
<svg
   xmlns:dc="http://purl.org/dc/elements/1.1/"
   xmlns:cc="http://creativecommons.org/ns#"
   xmlns:rdf="http://www.w3.org/1999/02/22-rdf-syntax-ns#"
   xmlns:svg="http://www.w3.org/2000/svg"
   xmlns="http://www.w3.org/2000/svg"
   xmlns:sodipodi="http://sodipodi.sourceforge.net/DTD/sodipodi-0.dtd"
   xmlns:inkscape="http://www.inkscape.org/namespaces/inkscape"
   width="210mm"
   height="297mm"
   viewBox="0 0 210 297"
   version="1.1"
   id="svg67"
   inkscape:version="1.0.1 (3bc2e813f5, 2020-09-07)"
   sodipodi:docname="logo blue drivers.svg">
  <defs
     id="defs61">
    <rect
       x="57.263393"
       y="149.86756"
       width="100.35268"
       height="17.386905"
       id="rect900" />
    <rect
       x="103.43331"
       y="169.44888"
       width="84.189901"
       height="29.666918"
       id="rect39" />
    <rect
       x="29.934187"
       y="175.06154"
       width="117.06405"
       height="31.537804"
       id="rect33" />
    <rect
       x="38.486812"
       y="192.16679"
       width="121.60764"
       height="36.348656"
       id="rect27" />
    <rect
       x="54.522984"
       y="186.28686"
       width="80.715398"
       height="28.865109"
       id="rect21" />
    <rect
       x="36.883195"
       y="200.71942"
       width="118.4004"
       height="46.504898"
       id="rect97" />
  </defs>
  <sodipodi:namedview
     id="base"
     pagecolor="#ffffff"
     bordercolor="#666666"
     borderopacity="1.0"
     inkscape:pageopacity="0.0"
     inkscape:pageshadow="2"
     inkscape:zoom="0.98994949"
     inkscape:cx="239.0079"
     inkscape:cy="538.19915"
     inkscape:document-units="mm"
     inkscape:current-layer="layer1"
     inkscape:document-rotation="0"
     showgrid="false"
     inkscape:window-width="1920"
     inkscape:window-height="986"
     inkscape:window-x="-11"
     inkscape:window-y="-11"
     inkscape:window-maximized="1" />
  <metadata
     id="metadata64">
    <rdf:RDF>
      <cc:Work
         rdf:about="">
        <dc:format>image/svg+xml</dc:format>
        <dc:type
           rdf:resource="http://purl.org/dc/dcmitype/StillImage" />
        <dc:title></dc:title>
      </cc:Work>
    </rdf:RDF>
  </metadata>
  <g
     inkscape:label="Capa 1"
     inkscape:groupmode="layer"
     id="layer1">
    <path
       d="m 115.91741,81.480032 c -1.59891,0 -2.8941,-1.29541 -2.8941,-2.8941 0,-1.59745 1.29519,-2.89409 2.8941,-2.89409 1.59802,0 2.89477,1.29664 2.89477,2.89409 0,1.59869 -1.29675,2.8941 -2.89477,2.8941 z m 5.12906,-5.27297 c -3.05011,-3.82132 -6.97914,-3.22338 -8.88112,-1.17705 -2.10864,2.26803 -2.08556,6.42155 1.68757,8.34135 2.63475,1.34079 3.75307,2.71051 4.2544,4.02777 0.91714,2.40902 -0.54157,4.45154 -0.54157,4.45154 0,0 3.65018,-1.99096 4.9735,-5.97794 0.81952,-2.4701 1.15508,-6.34758 -1.49278,-9.66567"
       style="fill:#ff5555;fill-opacity:1;fill-rule:nonzero;stroke:none;stroke-width:0.0112078"
       id="path14" />
    <path
       d="m 113.75708,95.255062 c -6.84353,-0.38118 -11.68926,-14.50074 -12.81162,-16.81516 -2.317911,-4.78106 -7.171027,-8.11831 -12.836944,-8.11831 -6.453268,0 -11.186799,4.56272 -13.626853,10.20028 -0.199859,0.4612 -0.388902,1.00871 -0.552951,1.66504 1.108356,3.24681 11.792639,17.26864 26.931898,20.092908 l -0.1726,0.92487 C 86.920258,100.63596 76.403017,88.969472 73.619139,83.790762 c -0.152046,1.05914 -0.244422,2.33 -0.244422,3.87422 0,13.558828 10.991379,24.550168 24.550101,24.550168 13.021442,0 23.669252,-10.14066 24.492132,-22.954388 -2.05294,3.60915 -4.21741,6.24188 -8.65987,5.9943"
       style="fill:#b8b7b8;fill-opacity:1;fill-rule:nonzero;stroke:none;stroke-width:0.0112078"
       id="path16" />
    <g
       id="g890"
       transform="matrix(0.68340057,0,0,0.68340057,27.210719,36.397108)">
      <path
         d="m 62.731199,130.63055 -0.0602,-0.0195 c 0.821727,0 1.482768,-0.24097 1.963563,-0.72168 0.480974,-0.48094 0.721551,-1.18208 0.721551,-2.08374 0,-0.42078 -0.06006,-0.80164 -0.200598,-1.14177 -0.140099,-0.34083 -0.320646,-0.6412 -0.560876,-0.88217 -0.240274,-0.24062 -0.520953,-0.42075 -0.841374,-0.56128 -0.320658,-0.13987 -0.661534,-0.20007 -1.022069,-0.20007 h -1.222184 v 5.61018 z m -0.03992,-6.91289 -0.04042,0.0405 c 0.601111,0 1.102406,-0.20025 1.502908,-0.58145 0.400905,-0.3802 0.601246,-0.94146 0.601246,-1.66258 0,-0.7015 -0.180694,-1.2425 -0.561492,-1.64352 -0.380238,-0.40057 -0.92141,-0.60085 -1.622564,-0.60085 h -1.122143 v 4.44794 z m -0.220436,-5.75063 -0.03998,0.0202 c 1.181825,0 2.103583,0.32088 2.744751,0.94191 0.641214,0.62103 0.961691,1.46252 0.961691,2.50451 0,0.50077 -0.07978,0.9215 -0.240319,1.28229 -0.160059,0.36054 -0.360837,0.64122 -0.580791,0.86165 -0.220437,0.22036 -0.461193,0.38086 -0.701322,0.48094 -0.240666,0.10021 -0.441052,0.16037 -0.601201,0.18033 v 0.04 c 0.199948,0.0204 0.460666,0.1003 0.781222,0.24084 0.320646,0.14009 0.621297,0.34039 0.921758,0.62081 0.300472,0.2802 0.561312,0.64121 0.781312,1.10196 0.220436,0.46074 0.320433,1.00188 0.320433,1.64308 0,1.38238 -0.380497,2.40466 -1.141847,3.08586 -0.761351,0.68122 -1.803503,1.002 -3.145645,1.002 h -2.645013 v -14.00637 h 2.58495"
         style="fill:#656c71;fill-opacity:1;fill-rule:nonzero;stroke:none;stroke-width:0.0112078"
         id="path18" />
      <path
         d="m 74.714127,130.49068 v 1.48272 h -6.051331 v -14.0261 h 1.522948 v 12.54338 h 4.528383"
         style="fill:#656c71;fill-opacity:1;fill-rule:nonzero;stroke:none;stroke-width:0.0112078"
         id="path20" />
      <path
         d="m 83.610822,117.9473 v 9.99866 c 0,1.42262 -0.320545,2.50404 -0.961748,3.24569 -0.641202,0.74182 -1.542874,1.082 -2.725081,1.082 -1.182206,0 -2.083991,-0.36067 -2.704795,-1.10196 -0.621588,-0.74116 -0.942133,-1.82316 -0.942133,-3.24591 v -9.95875 h 1.523149 v 10.05906 c 0,0.90166 0.179999,1.58266 0.520606,2.0636 0.341055,0.48093 0.882059,0.72133 1.603173,0.72133 0.721114,0 1.262006,-0.2404 1.623348,-0.72133 0.360446,-0.48094 0.540892,-1.18187 0.540892,-2.08401 V 117.9473 h 1.522589"
         style="fill:#656c71;fill-opacity:1;fill-rule:nonzero;stroke:none;stroke-width:0.0112078"
         id="path22" />
      <path
         d="m 92.046985,130.49068 v 1.48272 h -5.931092 v -14.0261 h 5.810498 v 1.48269 h -4.287459 v 4.38789 h 3.145938 v 1.44302 h -3.145938 v 5.22978 h 4.408053"
         style="fill:#656c71;fill-opacity:1;fill-rule:nonzero;stroke:none;stroke-width:0.0112078"
         id="path24" />
      <path
         d="m 97.618305,131.9734 v -14.0261 h 0.701613 v 14.0261 h -0.701613"
         style="fill:#ff5555;fill-opacity:1;fill-rule:nonzero;stroke:none;stroke-width:0.0112078"
         id="path26" />
      <text
         xml:space="preserve"
         id="text37"
         style="font-style:normal;font-weight:normal;font-size:10.5833px;line-height:1.25;font-family:sans-serif;white-space:pre;shape-inside:url(#rect39);fill:#ff5555;fill-opacity:1;stroke:none;"
         transform="matrix(1.7544282,0,0,1.7544282,-79.534773,-182.95848)"><tspan
           x="103.43359"
           y="179.10468"><tspan
             style="font-style:normal;font-variant:normal;font-weight:normal;font-stretch:normal;font-family:'Grand Hotel';-inkscape-font-specification:'Grand Hotel';fill:#ff5555;fill-opacity:1">Drivers</tspan></tspan></text>
    </g>
    <circle
       style="fill:none;stroke:none;stroke-width:0.7;stroke-miterlimit:4;stroke-dasharray:none"
       id="path854"
       cx="97.895836"
       cy="103.1875"
       r="39.309525" />
  </g>
</svg>
